<svg version="1.0" xmlns="http://www.w3.org/2000/svg" width="85.333" height="74.667" viewBox="0 0 64 56"><path d="M29.3 5l-2.1 4h4.4C34 9 36 8.7 36 8.4c0-.6-4-7.4-4.3-7.4-.1 0-1.2 1.8-2.4 4zM28 11.5c0 1.3 3.1 6.5 3.9 6.5.7 0 1.5-1.4 3.9-6.3.2-.4-1.5-.7-3.7-.7-2.3 0-4.1.2-4.1.5zm8.2 4.6L33.9 20h9l-2.1-3.8c-1.2-2-2.2-3.8-2.2-3.9-.1-.1-1.2 1.6-2.4 3.8zm-11.6-2.3c-.3.5.6 2 2.1 3.3l2.6 2.4-1.9-3c-1-1.7-1.9-3.1-2-3.3-.1-.2-.5.1-.8.6zm10.4 10c0 .4.7 1.8 1.7 3.1l1.6 2.4 1.9-2.3c2.6-3.2 2.3-4-1.7-4-1.9 0-3.5.3-3.5.8zm7.5 4.2c-2.1 4-2 4 2.5 4 2.2 0 4-.2 4-.5 0-1.4-3.2-6.5-4-6.5-.5 0-1.6 1.3-2.5 3zm2.7 7.6c.9.9 2.1 1.3 2.7 1 2-1.3 1.1-2.6-1.6-2.6-2.5 0-2.6.1-1.1 1.6zm4.9 2.3C48.9 40 51.4 43 54.3 43c1.4 0 1.4-.4-.4-3.5-2.4-4.1-2.5-4.1-3.8-1.6z"/></svg>